<svg xmlns="http://www.w3.org/2000/svg" version="1.1" id="Layer_1" x="0" y="0" viewBox="0 0 1320 184" enable-background="new 0 0 1320 184" xml:space="preserve"><g id="Logo"><linearGradient id="SVGID_1_" gradientUnits="userSpaceOnUse" x1="291.2" y1="162.9" x2="291.2" y2="134.8"><stop offset="0" stop-color="#ED1C24"/><stop offset="1" stop-color="#FCEE21"/></linearGradient><path fill="url(#SVGID_1_)" d="M293.2 162.9c-1.8 0.2-2-3.9-3.6-5.4 -1.8-1.8-4.3-1.7-6.6-2 4.3-2.5 4.5-8.6 6.6-12.7 0 2-0.9 4.1 0 5.9 2.5-2.6 5.3-10.3 5.4-13.8 0 1.5-1.6 7.8 0.2 8.2 2.2 0.5 3.6-6.6 4.1-7.9 0.4 5.1-0.7 10.5-1.1 15.2 -0.4 2.5-0.7 4.7-1.8 6.9 0 0.7-1.8 4-1.1 2.9"/><linearGradient id="SVGID_2_" gradientUnits="userSpaceOnUse" x1="792" y1="161.7" x2="792" y2="137.3"><stop offset="0" stop-color="#ED1C24"/><stop offset="1" stop-color="#FCEE21"/></linearGradient><path fill="url(#SVGID_2_)" d="M801.3 151.6c-1.9 3.4-4.1 1.5-7.2 1.7 -1.5 0.1-3 0.5-4.6 0.4 -1.9-0.2-4.1-0.9-5.3-2.5 -1.2-1.5-1.9-3.7-2.2-5.5 -0.3-2.2 0.8-3.3 1.4-5.2 0.5-1.6 1.3-3 1.9-4.8 -0.2 1.3-2.4 7.3 0 6.7 1.6-0.3 2.1-4.6 2.4-5.9 0.5-1.4 1-3.7 2.7-4.3 -1.4 3.5-2.9 7.3-3 11.1 0 1.4 0.5 3.3 2.1 1.6 1-1.1 1.3-2.5 2.2-3.7 -0.3 0.6-1.1 2.4-0.5 3.2 1 1.1 1.9-1.1 2.1-1.9 0.6-2.4 0-6.2-1.1-8.4 0.8 2.4 1.9 4.5 2.2 7 0.3 1.9-0.8 3.5-0.6 5.3 1.8 0 1.8-3.8 1.9-5.1 0.3-2.4 1-4.5 1.8-6.8 -0.3 1-0.6 2.5-0.3 3.3 1.9-1.3 1.3-6.5 1.3-8.4 -0.2 2.5 1 5.4 1.4 8.1 0.2 1.1 0.5 2.4 0.2 3.5 -0.2 0.8-0.8 1.6-0.8 2.5 1.3-1.4 1.3-4.1 2.7-5.3 -0.6 3-0.3 6.1-0.2 9.1C801.9 148.7 802.1 150.2 801.3 151.6z"/><linearGradient id="SVGID_3_" gradientUnits="userSpaceOnUse" x1="821.8" y1="156.8" x2="821.8" y2="90.2"><stop offset="0" stop-color="#ED1C24"/><stop offset="1" stop-color="#FCEE21"/></linearGradient><path fill="url(#SVGID_3_)" d="M823.3 147.5C823.3 147.4 823.3 147.4 823.3 147.5c0.8-1.8 1.5-3.7 1.9-5.6 0.4-1.6 1-3 1.5-4.6 -0.3 0.5-1.7 2.7-2.3 2.8 -0.7 0.1-0.2-1.4-0.2-2 0-1.6-0.3-3.2 0.3-4.8 0.7-1.8 2.5-2.9 3-4.9 0.3-1.5-0.3-2.9-0.1-4.4 0.3 0.8 0.1 3.2-1.3 2.8 -1.9-0.5 0.5-4.7 0.9-5.6 1.1-2.6 2.1-5.8 1.6-8.6 -0.4-1.8-1.6-3.6-1.7-5.4 0.7 2.3 1.2 6.5-0.2 8.7 -0.6 0.9-1.1 1-1.1-0.2 0-0.8 0.4-1.9 0.8-2.6 -1.4 0.8-1.7 2.4-2 3.9 -0.2 1-0.2 2.2-1 3 -0.7 0.7-1.5 1.2-2.2 1.9 -0.4-1.4-0.4-2.5-0.4-3.9 0-0.4 0.4-2.9 0.4-1.4 0-1.2 0.1-2.3 0.5-3.4 0.4-1 0.3-1.8 0.5-2.9 0.2-1.1 0.9-2.1 1.2-3.2 0.3-1.1 0.2-2.3 0.2-3.5 0-1.2 0.5-2.7 0.4-3.8 -0.4 0.8-1 3.5-1.9 3.5 -0.3-0.7 0-1.9 0-2.6 0-0.9 0-1.6 0.2-2.4 0.6-2.7 1-5.5 2.3-8 -1.1 0.8-1.9 2.5-2.3 3.8 -0.3 1-0.4 2.9-1.5 3.5 0-0.9 0.3-1.9 0.5-2.8 0.2-0.9 0.8-2.1 0.6-3 -0.9 1.7-0.8 4.1-2.2 5.5 -1 1.1-1.5-0.2-1.3-1.2 0.2-1.1 0.6-2.1 0.9-3.1 -0.7 1.1-1.5 2.2-2 3.5 -0.3 0.7-0.3 1.5-0.5 2.2 -0.3 0.8-0.7 0.9-1.1 1.4 -0.9 1.1-0.9 3.1-0.8 4.6 0.2 3.3 1.4 6.5 1.8 9.8 0.7 6.2 0.1 12.7 0.5 19 0.3 4.6 1.5 9 1.7 13.5 0.1 1.7 0.1 3.4-0.4 5 -0.5 1.6-0.6 3.4-1.1 5C819.5 153.7 821.8 150.9 823.3 147.5z"/><linearGradient id="SVGID_4_" gradientUnits="userSpaceOnUse" x1="781.8" y1="30.8" x2="803.5" y2="55.8"><stop offset="0" stop-color="#ED1C24"/><stop offset="1" stop-color="#FCEE21"/></linearGradient><path fill="url(#SVGID_4_)" d="M816.2 49c0.1 1.1 0.4 2.2 0.3 3.3 -5.5-2.7-10.7-3.4-16.8-3.2 -6.7 0.2-14.5 0.6-21 2.8 -3.3 1.1-5.9 3.4-8.9 4.6 2.1-3.6 3.9-7.7 6.3-11.1 1.9-2.7 4.6-4.6 5.9-7.9 -0.7 1.8-1.8 5-1.8 6.8 0.4-0.4 1.1-1.1 1.8-1.4 0.7-0.7 1.1-1.4 1.8-2.2 0.7-0.4 1.4 0.4 2.2-0.4 3.2-2.2 4.3-7.9 6.5-11.1 -0.7 3.6-1.4 7.2-2.2 10.8 -0.7 4.7-0.7 3.2 3.2 1.8 0 4.7 4.7-1.4 5-2.5 1.8-3.6 2.9-7.2 5.4-10 0 2.2-0.9 4.4-1.5 6.5 -0.3 0.9-1.5 4.4 0.8 3.7 1.9-0.6 1.9-3.3 2.2-4.8 0.4-2.3 2.7-3.7 2.8-6 0.1-1.4 0.1-2.9 0.2-4.3 0-0.9 0.1-1.9-0.2-2.7 -0.1 0.8 0.4 1.8 0.7 2.6 0.3 1 0.8 2.1 0.9 3.2 0.1 1 0.1 2.3-0.2 3.2 -0.3 1.1-0.9 2.1-1.4 3.2 -0.7 1.7-1 3.7-0.9 5.5 0.1 1.7 0.6 5.5 2.6 6 0.9 0.3 1.6-0.4 2.1-1.1 0.7-1.1 1.2-2.3 2.1-3.3 -0.4 1.8-1.4 3.9-0.7 5.4 2.5-1.8 4.7-5.7 6.5-8.3 -0.6 3.1-3 5.8-3.5 8.9 -0.7 4.1 0 7.1-1.9 11.2"/><linearGradient id="SVGID_5_" gradientUnits="userSpaceOnUse" x1="708.7" y1="168.3" x2="708.7" y2="131.1"><stop offset="0" stop-color="#ED1C24"/><stop offset="1" stop-color="#FCEE21"/></linearGradient><path fill="url(#SVGID_5_)" d="M713.1 157.8c0.3-2.6-0.3-5.5 0-8.1 0.3-1.9 1-3.9 1.6-5.8 -2.3 2.6-2.6 6.1-5.5 8.4 0.6-3.2 2.3-5.8 3.2-8.7 0.6-2.9 1-5.8 1.9-8.4 -1 2.3-1.9 7.1-4.5 9 -0.3-1.9 1.3-5.2 1.9-7.1 0.3-1.9 1-4.2 1.3-6.1 0 3.9-2.6 7.7-4.8 10.6 -3.3 4.2-3.8 5.1-4.5 10.5 -0.6 5.3-2.3 11-0.3 16.1 -0.2-0.5 4.5-3.2 5.1-3.7C710.7 162.9 712.5 160.5 713.1 157.8z"/><linearGradient id="SVGID_6_" gradientUnits="userSpaceOnUse" x1="720.8" y1="82.4" x2="720.8" y2="44.1"><stop offset="0" stop-color="#ED1C24"/><stop offset="1" stop-color="#FCEE21"/></linearGradient><path fill="url(#SVGID_6_)" d="M720.9 82.4c-3.3-2.3-3-10.6-4.5-14.3 -1.9-4.7 2.3-9.5 3.5-14.1 0 0.3 0.6 1 0.6 1.3 2.3-3.2 1.9-8.1 3.9-11.3 1.3 4.2-0.6 9.7-1.6 13.5s-0.6 8.4-1.9 11.9c0.3-1 1.3-2.3 2.3-2.9 0 2.6-1.6 5.5-1.3 8.1 1.3-1 2.6-3.2 3.9-4.5 0 3.9-3.2 7.4-3.5 11.3 0.3 0 0.3-0.3 0.6-0.3"/><linearGradient id="SVGID_7_" gradientUnits="userSpaceOnUse" x1="610.5" y1="50.9" x2="610.5" y2="21.9"><stop offset="0" stop-color="#ED1C24"/><stop offset="1" stop-color="#FCEE21"/></linearGradient><path fill="url(#SVGID_7_)" d="M621.5 50.5c-4.6 0.1-9-1.3-13.5-1.6 -5.3-0.4-9.8 1.5-14.8 1.9 -4.1 0.3-2.5-2.6-0.8-4.7 2-2.6 3.5-4.5 5-7.6 0 0.6 0.1 5-0.3 5.3 2.6-1.6 4.8-6.1 6.8-8.4 3.2-3.9 6.1-9 7.7-13.5 -0.6 1.9-10 26.1 0 19.3 0 3.2 1 2.3 3.2 1 3.8-2.2 2.3 1.3 5.2 0.4 2.9-0.9 2.7-6.9 5-8.7 -0.4 2-3.8 9.6 0.3 7.5 2-1 3.8-3.9 5.1-5.7 -1.9 2.2-2.4 5.8-2.4 8.6 0 2.3 0.3 6.3-3 6.3 0.1-0.2 0.1-0.4 0.1-0.6"/><linearGradient id="SVGID_8_" gradientUnits="userSpaceOnUse" x1="672.1" y1="82.6" x2="693.2" y2="71.8"><stop offset="0" stop-color="#ED1C24"/><stop offset="1" stop-color="#FCEE21"/></linearGradient><path fill="url(#SVGID_8_)" d="M676.7 117.5c-0.7 3-0.4 9.5-2.7 11.7 -3 2.8-4.7-0.4-5-2.9 -1.2-10 0-20.3-1.1-30.4 -1.1-9.5-1.8-19.1-1.9-28.7 0-6-3-14.8 0.5-20.3 1.3-2 2.9-3.3 3.9-5.7 1-2.3 1.6-4.7 2.7-6.9 -0.7 2.2-1.4 5.8-1.1 8.1 2.3-2.9 2.6-5.8 3.8-9 2.8 5.4 0.9 11.2 1.8 16.9 0.3 2.2 0.8 3.8 0.6 6.1 -0.4 3.4 0.4 5.6 0.7 8.9 0.4 4.6-1.8 9.4-2.6 13.9 -0.6 3.5-1.3 7.4-2.3 10.6 0.6-3.5 2.3-7.7 3.9-11 1.3-2.9 2.3-5.2 2.6-8.4 0.3-1.6 0-5.5 1.6-6.4 1.6 3.2 0 8.1-0.6 11.3 -0.6 4.5-1.9 8.7-3.2 13.2 -1 3.9-1.3 9-3.5 12.9 0-2.3 1-4.5 1.6-6.4 0.3 3.2-1.3 6.8-1.6 10 1.9-0.6 2.9-2.6 3.9-3.9 0.6 3.5-2.3 7.1-2.6 10.6 4.2-2.3 5.8-12.9 6.8-17.1C679.9 101.8 678.6 110.1 676.7 117.5z"/><linearGradient id="SVGID_9_" gradientUnits="userSpaceOnUse" x1="480.3" y1="160.5" x2="480.3" y2="140.3"><stop offset="0" stop-color="#ED1C24"/><stop offset="1" stop-color="#FCEE21"/></linearGradient><path fill="url(#SVGID_9_)" d="M485.1 148.2c2.1 1.6 7.3 3.1 8.6 3 -2.3 0.2-3.9 1.3-5.9 2.1 -2.1 0.8-4.4 0.6-6.6 0.9 -5.3 0.6-10.8 0.1-16-0.1 2-3.4 6.5-5.2 7.9-8.8 -0.2 0.9-0.4 4.1-0.9 4.7 1.2-1.4 3.1-2.6 4-4 0.8-1.3 0.6-3.3 0.7-4.8 0.3-2.7 1.4-4.6 2.9-6.8 -0.9 2-2 4.3-2.1 6.6 0 1.1 0.5 2 0.4 3 -0.1 2-1.1 4-1.2 6 2.3-1.3 3.9-3.5 5.8-4.8 -0.8 0.5-1 2.6-0.9 3.5 2.9-2.3 3.3 2.8 5.9 0.5 2-1.8 2.5-6.1 3.1-8.6 0.1 2.7-0.4 6.6-1.2 9.6 2-1 2.9-5.1 3.6-7 1-2.7 2.3-5.8 2.2-8.7 0 4.1-0.4 8-0.8 12.1 -0.2 1.9-1.1 5.1-0.1 6.9 -1.1 0.5-2.8 0.9-4 0.8 -0.1-0.3 0.1-0.5 0.2-0.8"/><linearGradient id="SVGID_10_" gradientUnits="userSpaceOnUse" x1="537.5" y1="157" x2="537.5" y2="113.7"><stop offset="0" stop-color="#ED1C24"/><stop offset="1" stop-color="#FCEE21"/></linearGradient><path fill="url(#SVGID_10_)" d="M545.7 148.5c-0.5 3.8-1.1 8.2-5.4 8.5 -4.2 0.4-8.7-3.3-10.4-6.9 -2.2-4.6-1-11 0-15.8 0.7-3.1 1.8-9.6 4.2-11.9 -1 3.2-2.9 9.3-1.9 12.6 4.8 0.3 7.1-17.4 7.7-21.3 -0.6 6.1-1 12.6-1.6 19 -0.6 4.2-2.9 9.7-2.6 13.5 1.3-1.3 2.3-3.5 3.2-5.2 0.6 1.9 0 4.5 0 6.4 4.2-3.5 4.5-10 7.1-14.5C546.7 137.8 546.4 143.3 545.7 148.5z"/><linearGradient id="SVGID_11_" gradientUnits="userSpaceOnUse" x1="273.7" y1="57.1" x2="273.7" y2="0"><stop offset="0" stop-color="#ED1C24"/><stop offset="1" stop-color="#FCEE21"/></linearGradient><path fill="url(#SVGID_11_)" d="M307 22.8c-1.6 2.3-3.3 4.7-4.9 7 -1.9 2.6-4.4 5.1-5.4 8.2 -0.7 2.2-0.2 4.5-1.1 6.7 -1.9 5-5.6 10-10.8 11.8 -5.9 1.9-12.8-1-18.5-2.1 -8.7-1.8-17.4-1.4-26.1-2.7 5.2-6 14.5-6.6 19.8-12.8 5.1-5.9 5.5-15.2 11.2-20.9 0 6.8-6.8 11.9-6.8 18.7 0-0.2 5.8-3.1 6.4-3.5 1.9-1.2 3.6-2.5 5.1-4.2 3.1-3.4 5.3-7.4 7.8-11.2 2.9-4.3 6.4-8.2 10.2-11.8 2.2-2.1 5-4.7 7.7-6.1 -6.7 7.4-14.7 14-16.3 24.5 -0.4 2.4-1.2 6.4 2.5 4.6 2.1-1 3.9-3.2 3.6-5.6 -0.6 1.3 1.1 4 1.2 5.6 0.2 2.7-2.1 4.4-2.6 6.8 -0.9 3.7 2.9 1.1 4.2 0C298.9 31.8 302 26.3 307 22.8z"/><linearGradient id="SVGID_12_" gradientUnits="userSpaceOnUse" x1="338.5" y1="74.1" x2="338.5" y2="15.8"><stop offset="0" stop-color="#ED1C24"/><stop offset="1" stop-color="#FCEE21"/></linearGradient><path fill="url(#SVGID_12_)" d="M324.2 50.2c4.1-2.2 6.1-8.3 8-12.4 2.6-4.5 6.4-7.3 9.6-11.1 -2.6 3.8-8.9 12.4-7.3 17.2 3.8-2.9 7-8.3 9.2-12.1 3.2-5.1 5.1-11.8 9.2-15.9 -1.9 1.9-2.6 5.7-3.5 8.3 -1.3 4.1-2.2 8-2.9 12.4 -1 6.7-4.1 9.6-7.3 14.6 3.2-0.6 5.7-6.1 6.4-8.9 -1.6 2.5-1.6 6.4-2.9 9.2 -1.3 3.5-3.5 7-5.4 10.2 -2.2 3.8-4.1 9.9-7.7 12.4 -1.3-1.6-1.6-5.4-2.2-7.6 -1-3.2-2.9-7-3.2-10.2"/><linearGradient id="SVGID_13_" gradientUnits="userSpaceOnUse" x1="274.3" y1="100.1" x2="274.3" y2="75.7"><stop offset="0" stop-color="#ED1C24"/><stop offset="1" stop-color="#FCEE21"/></linearGradient><path fill="url(#SVGID_13_)" d="M282.4 75.7c-0.1 0.2 0.8 2.3 0.8 2.8 0.1 1.5-0.3 3.2-0.7 4.6 -0.8 2.6-2.9 4.5-3.8 7 -0.9 2.4 0.7 5.4-0.6 7.5 -1.7 3.1-9.9 2.7-12.7 2.1 0.7-2.4 3.4-3.8 4.6-6 0.7-1.2 3.5-5.1 3.7-6.2 -0.3 1.9-1.9 3.2-1.9 5.4 1.9-1 4.1-4.1 5.4-6.1C279.8 83.3 280.8 79.8 282.4 75.7z"/><linearGradient id="SVGID_14_" gradientUnits="userSpaceOnUse" x1="424.7" y1="84.2" x2="424.7" y2="28.9"><stop offset="0" stop-color="#ED1C24"/><stop offset="1" stop-color="#FCEE21"/></linearGradient><path fill="url(#SVGID_14_)" d="M429.1 59.4c-3.1-4.4-6.1-8.8-11.9-9.7 -2.1-0.3-14.4-2.3-15.4-0.9 3.4-4.5 13.6-7.8 13.6-14.6 -0.3 2.5-1.6 5.1-1.9 7.6 1.6-0.7 3.8-2 4.8-3.5 0.6-0.9 0.9-1.9 1.5-2.8 0.7-1.1 1.7-2 2.6-2.8 1.4-1.2 2.9-2.2 4.3-3.2 -1 0.7-2.2 1.7-2.7 2.8 -0.3 0.6-1.2 2.4-0.1 2.6 1.2 0.2 2.2-1.6 2.9-2.3 0.9-0.9 1.7-2.2 1.8-3.5 0 0.7 0.3 1.5 0.2 2.3 -0.1 0.7-0.1 1.6-0.4 2.2 -1 1.9-2.9 3-3.6 5.1 -0.3 1.1-0.4 2.1 0.3 3.1 0.3 0.5 1.1 1 1.7 1 0.6 0 0.8-0.5 1.1-0.9 0.9-1.1 1.8-2.1 2.6-3.3 1.3-1.8 2.3-4.1 3.9-5.7 -0.6 2.2-6 12.1-0.3 9.2 3.7-1.9 4.1-9.8 5.5-13.3 -1.3 6.6-1.1 14.2-1.4 20.9 -0.1 1.8-1.5 3.1 1.3 2.9 1.9-0.1 4.2-3.5 4.7-5 -1.3 2.2-3.7 7-3.4 9.8 4.2-2.7 7.2-8.6 6.6-13.6 -1.5 2.7-1.2 7.9-1.6 11.2 -0.6 4.2-1.1 8.6-2.2 12.7 -1.3 4.6-2.4 13.7-6.5 16.5 -1.2-3.5-1.1-7.7-2-11.4C434 67.9 432 63.6 429.1 59.4z"/><path fill="#FFFFFF" d="M909.8 119.1l-6.1 11.5v38.7h-19.8V43.4h19.8v54.8l25.9-54.8h19.8l-27.6 56.1 27.6 69.8h-20.3L909.8 119.1z"/><path fill="#FFFFFF" d="M958.4 43.4h19.8v125.9h-19.8V43.4z"/><path fill="#FFFFFF" d="M986.9 43.4h61.2v18h-20.7v107.9h-19.8V61.4h-20.7V43.4z"/><path fill="#FFFFFF" d="M1051 43.4h61.2v18h-20.7v107.9h-19.8V61.4H1051V43.4z"/><path fill="#FFFFFF" d="M1140.6 96.5h27.2v18h-27.2v36.9h34.2v18h-54V43.4h54v18h-34.2V96.5z"/><path fill="#FFFFFF" d="M1204.8 78.1v91.2h-17.8V43.4h24.9l20.3 75.3V43.4h17.6v125.9h-20.3L1204.8 78.1z"/><path fill="#FFFFFF" d="M1290.6 42c19.3 0 29.2 11.5 29.2 31.6v4h-18.7v-5.2c0-9-3.6-12.4-9.9-12.4 -6.3 0-9.9 3.4-9.9 12.4 0 25.9 38.7 30.7 38.7 66.7 0 20.1-10.1 31.6-29.5 31.6 -19.4 0-29.5-11.5-29.5-31.6v-7.7h18.7v9c0 9 4 12.2 10.3 12.2 6.3 0 10.3-3.2 10.3-12.2 0-25.9-38.7-30.7-38.7-66.7C1261.5 53.5 1271.4 42 1290.6 42z"/><linearGradient id="SVGID_15_" gradientUnits="userSpaceOnUse" x1="344.9" y1="22.1" x2="344.9" y2="6.2"><stop offset="0" stop-color="#ED1C24"/><stop offset="1" stop-color="#FCEE21"/></linearGradient><path fill="url(#SVGID_15_)" d="M341.2 22.1c-0.7-3.2 0-6.6 1.4-9.5 0.7-1.5 1.6-2.9 2.8-4 1-1 2.4-1.6 3.5-2.4 -3 2.9-3.5 5.1-4.7 8.9C343.5 17.4 341.2 19.6 341.2 22.1z"/><linearGradient id="SVGID_16_" gradientUnits="userSpaceOnUse" x1="267.1" y1="168.6" x2="267.1" y2="31"><stop offset="0" stop-color="#ED1C24"/><stop offset="1" stop-color="#FCEE21"/></linearGradient><polygon fill="url(#SVGID_16_)" points="240.3 169.6 293.9 169.6 293.9 151.8 259.4 151.8 259.4 114.8 286.2 114.8 286.2 97 259.4 97 259.4 62.6 293.9 62.6 293.9 44.8 240.3 44.8 "/><linearGradient id="SVGID_17_" gradientUnits="userSpaceOnUse" x1="337.1" y1="168.6" x2="337.1" y2="31"><stop offset="0" stop-color="#ED1C24"/><stop offset="1" stop-color="#FCEE21"/></linearGradient><polygon fill="url(#SVGID_17_)" points="371.4 44.8 353.2 44.8 338 90.8 323.1 44.8 302.8 44.8 323.3 105.4 301.3 169.6 319.7 169.6 336 120.2 352.1 169.6 372.8 169.6 350.8 105.4 "/><linearGradient id="SVGID_18_" gradientUnits="userSpaceOnUse" x1="411.9" y1="168.6" x2="411.9" y2="31"><stop offset="0" stop-color="#ED1C24"/><stop offset="1" stop-color="#FCEE21"/></linearGradient><path fill="url(#SVGID_18_)" d="M411.6 44.8h-28.4v124.8h19.1v-47.1h9.3c19.7 0 29-11 29-31V75.3C440.6 55.3 431.2 44.8 411.6 44.8zM421.4 92.8c0 8.9-3.6 11.9-9.8 11.9h-9.3v-42h9.3c6.3 0 9.8 2.5 9.8 11.4V92.8z"/><linearGradient id="SVGID_19_" gradientUnits="userSpaceOnUse" x1="475.7" y1="168.6" x2="475.7" y2="31"><stop offset="0" stop-color="#ED1C24"/><stop offset="1" stop-color="#FCEE21"/></linearGradient><polygon fill="url(#SVGID_19_)" points="469.9 44.8 449.5 44.8 449.5 169.6 501.8 169.6 501.8 151.8 469.9 151.8 "/><linearGradient id="SVGID_20_" gradientUnits="userSpaceOnUse" x1="538.8" y1="168.3" x2="538.8" y2="30.7"><stop offset="0" stop-color="#ED1C24"/><stop offset="1" stop-color="#FCEE21"/></linearGradient><path fill="url(#SVGID_20_)" d="M538.8 43c-19.3 0-29.3 11.4-29.3 31.4v64.9c0 20 10 31.4 29.3 31.4 19.3 0 29.3-11.4 29.3-31.4V74.4C568.1 54.4 558.1 43 538.8 43zM549 140.6c0 8.9-4 12.3-10.2 12.3 -6.3 0-10.2-3.4-10.2-12.3V73.1c0-8.9 4-12.3 10.2-12.3 6.3 0 10.2 3.4 10.2 12.3V140.6z"/><linearGradient id="SVGID_21_" gradientUnits="userSpaceOnUse" x1="611.5" y1="168.6" x2="611.5" y2="31"><stop offset="0" stop-color="#ED1C24"/><stop offset="1" stop-color="#FCEE21"/></linearGradient><path fill="url(#SVGID_21_)" d="M612.5 44.8h-31.6v124.8h31.6c19.7 0 29.7-11.2 29.7-31.2V75.3C642.1 55.3 632.1 44.8 612.5 44.8zM621.7 139.3c0 8.9-3.4 12.4-9.6 12.4h-10.8V62.6h10.8c6.3 0 9.6 2.9 9.6 11.8V139.3z"/><linearGradient id="SVGID_22_" gradientUnits="userSpaceOnUse" x1="664.5" y1="168.6" x2="664.5" y2="31"><stop offset="0" stop-color="#ED1C24"/><stop offset="1" stop-color="#FCEE21"/></linearGradient><rect x="654.9" y="44.8" fill="url(#SVGID_22_)" width="19.1" height="124.8"/><linearGradient id="SVGID_23_" gradientUnits="userSpaceOnUse" x1="719.3" y1="168.6" x2="719.3" y2="31"><stop offset="0" stop-color="#ED1C24"/><stop offset="1" stop-color="#FCEE21"/></linearGradient><polygon fill="url(#SVGID_23_)" points="732.7 119.2 712.7 44.8 688.1 44.8 688.1 169.6 705.9 169.6 705.9 78.8 730.2 169.6 750.6 169.6 750.6 44.8 732.7 44.8 "/><linearGradient id="SVGID_24_" gradientUnits="userSpaceOnUse" x1="792.7" y1="168.3" x2="792.7" y2="30.7"><stop offset="0" stop-color="#ED1C24"/><stop offset="1" stop-color="#FCEE21"/></linearGradient><path fill="url(#SVGID_24_)" d="M822 86.8V74.4c0-20-10-31.4-29.3-31.4 -19.3 0-29.3 11.4-29.3 31.4v64.9c0 20 10 31.4 29.3 31.4 19.3 0 29.3-11.4 29.3-31.4V99.5h-28.1v17.8h8.9v23.2c0 8.9-4 12.1-10.2 12.1 -6.3 0-10.2-3.2-10.2-12.1V73.1c0-8.9 4-12.3 10.2-12.3 6.3 0 10.2 3.4 10.2 12.3v13.7H822z"/><linearGradient id="SVGID_25_" gradientUnits="userSpaceOnUse" x1="829" y1="100.4" x2="829" y2="91.3"><stop offset="0" stop-color="#ED1C24"/><stop offset="1" stop-color="#FCEE21"/></linearGradient><path fill="url(#SVGID_25_)" d="M830.4 95.7c-0.4 2-2.4 2.8-3 4.7 0.1-1.5 1.1-2.8 1.5-4.2 0.4-1.5 0.5-3.3 0.1-4.8C830 92.4 830.7 94.3 830.4 95.7z"/><linearGradient id="SVGID_26_" gradientUnits="userSpaceOnUse" x1="678.9" y1="33.3" x2="690.8" y2="27.2"><stop offset="0" stop-color="#ED1C24"/><stop offset="1" stop-color="#FCEE21"/></linearGradient><path fill="url(#SVGID_26_)" d="M687.4 20.6c-0.4 0.4-0.7 4.6-1 5.5 -0.5 1.7-1.3 3.2-2 4.9 -1.1 2.9-1.4 5.9-2.2 8.9 -0.2-3.4 0.1-9 1.5-12.1C684.6 25.8 685.9 22.1 687.4 20.6z"/><linearGradient id="SVGID_27_" gradientUnits="userSpaceOnUse" x1="620" y1="35.8" x2="620" y2="21.6"><stop offset="0" stop-color="#ED1C24"/><stop offset="1" stop-color="#FCEE21"/></linearGradient><path fill="url(#SVGID_27_)" d="M616.5 35.8c-1-5.4 3.8-10.6 7.1-14.2 -0.8 2.5-0.9 5.5-2.3 7.8C619.7 31.8 616.4 32.3 616.5 35.8z"/><linearGradient id="SVGID_28_" gradientUnits="userSpaceOnUse" x1="489" y1="140.9" x2="489" y2="125.8"><stop offset="0" stop-color="#ED1C24"/><stop offset="1" stop-color="#FCEE21"/></linearGradient><path fill="url(#SVGID_28_)" d="M490.4 132.8c-1 2.3-4.2 5.3-3.5 8.1 -0.6-2.9-0.1-6.1 1-8.9 0.4-1.1 1-2.2 1.6-3.2 0.6-1 1.3-1.9 1.6-3.1 0.4 0.3 0.3 1.1 0.1 1.5 -0.1 0.5-0.2 0.9-0.2 1.5C491 130.1 491 131.6 490.4 132.8z"/><linearGradient id="SVGID_29_" gradientUnits="userSpaceOnUse" x1="481.6" y1="132.2" x2="481.6" y2="125.4"><stop offset="0" stop-color="#ED1C24"/><stop offset="1" stop-color="#FCEE21"/></linearGradient><path fill="url(#SVGID_29_)" d="M480.5 132.2c0.2-0.9 1.9-1.3 2.1-2.9 0.1-1.3-0.7-2.9-1.5-3.9C481 127.7 481.1 130 480.5 132.2z"/><linearGradient id="SVGID_30_" gradientUnits="userSpaceOnUse" x1="437.5" y1="29.3" x2="437.5" y2="20.8"><stop offset="0" stop-color="#ED1C24"/><stop offset="1" stop-color="#FCEE21"/></linearGradient><path fill="url(#SVGID_30_)" d="M439.2 20.8c0.4 0.1-0.3 1-0.5 1.3 -0.4 1-0.4 2-0.8 3 -0.5 1.4-2.7 2.4-2.2 4.1 0-0.9 0.1-1.6 0.4-2.5 0.3-0.9 0.3-1.9 0.6-2.8 0.4-1.3 1.2-2.6 2.6-3"/><linearGradient id="SVGID_31_" gradientUnits="userSpaceOnUse" x1="796.6" y1="21.1" x2="800.5" y2="25.7"><stop offset="0" stop-color="#ED1C24"/><stop offset="1" stop-color="#FCEE21"/></linearGradient><path fill="url(#SVGID_31_)" d="M799.8 18.7c-0.6 1.4-0.5 3.1-0.8 4.6 -0.2 0.9-0.9 1.6-1.2 2.5 -0.4 0.9-0.7 1.8-0.7 2.8 -0.3-1.1-0.3-2.5 0-3.6 0.2-0.9 0.3-1.9 0.4-2.8 0.3-1.7 1.4-2.9 2.6-4.1"/><linearGradient id="SVGID_32_" gradientUnits="userSpaceOnUse" x1="810.5" y1="34.5" x2="814.1" y2="38.7"><stop offset="0" stop-color="#ED1C24"/><stop offset="1" stop-color="#FCEE21"/></linearGradient><path fill="url(#SVGID_32_)" d="M811 35.8c0.6 0.7 0.1 1.6-0.1 2.3 -0.3 1.1-0.1 2.2 0.2 3.2 -0.3-1.2 0.5-1.9 1-2.8 0.4-0.7 0.5-2.3 0.3-3.1 -0.4-1.2-1.5 0.8-1.7 1.4 -0.6 1.6 0 3-0.1 4.6 0-0.5 0.1-1.9 0.7-2.3 0.1 0.5 0.1 1 0.3 1.5 0.2-0.6 0-1.3 0.2-1.9 0.2-0.7 0.8-1.4 1.2-2 0.6-0.9 0.7-1.8 0.8-2.8 0.1-0.8 0.3-1.6 0.2-2.4 0 0.6-0.2 1.1-0.5 1.6 -0.4 0.5-1.1 1-1.4 1.6 -0.1 0.4 0.1 0.5 0.1 0.9 0 0.5-0.4 0.8-0.4 1.3C811.5 36.4 811.3 36.1 811 35.8c0-0.1 0.1 0 0.1 0"/><linearGradient id="SVGID_33_" gradientUnits="userSpaceOnUse" x1="84.8" y1="188.6" x2="84.8" y2="28.7"><stop offset="0" stop-color="#ED1C24"/><stop offset="1" stop-color="#FCEE21"/></linearGradient><path fill="url(#SVGID_33_)" d="M161.6 101.8c-1.6-6-3.6-11.8-5.1-17.8 -2.2-8.5-1.5-20.6-7.2-27.6 -2.7-3.3-5-6.1-7-10 -1.8-3.6-3.6-7.3-6.6-10.1 -0.1 4.1 5.1 15.9 2.7 19.1 -1.3 1.8-4.9 0.6-6.5 0.2 -3.5-0.8-6.9-1.2-10.5-1.3 -3.9-0.1-8.6 2-12.4 1.3 -3.2-0.6-7.5-5-10.2-6.9C94 45.3 89.2 39.7 84 37.5c2.2 5.3 6.3 10.3 9.8 14.8 3.1 3.9 2.3 5.1-0.2 9.3 -1.8 3.1-3.1 6.3-4.2 9.7 -0.5 1.7-0.9 4.9-2.2 6.3 -1.4 1.4-5 1.5-7.1 1.8 -12.2 2.3-24.4 4.7-35.7 10.2 -11.6 5.7-23.8 16.2-26.9 29.1 -0.7 3-0.5 6.2-1.3 9.2 -0.2 0.7-0.4 1.4-0.6 2.1C7.8 134.8 0 141.2 0 151c-0.5 17.6 19.2 30.2 34.6 32.4 7.1 1.1 18.9 1.4 24.7-4.1 4.7-4.4-3.3-6.3-6.6-6.6 -6.6-1.1-13.2-0.3-19.8-1.1 -5.5-0.8-10.7-2.7-15.6-5.8 -4.4-2.7-9.9-6.8-9.3-12.9 0.3-4.6 3.3-8.8 6.5-12.6 0.4 6.7 2.4 13.4 6.7 18.7 4.2 5.2 14 5.1 20.1 5.2 2.8 0 9.8 0.8 10.9-2.7 0.7-2.2-1.8-4.3-2.4-6 2.4-0.5 5.3 2.1 7.7 2.6 4.3 1 9 2.1 13.5 2.5 6 0.6 12.8-0.6 18.6 0.3 -2.6 6.7 23.1 12.3 17.6 0 4.8 1 9.9 0.5 14.7 0.9 1.7 0.1 15.1 0.1 15.5-1.4 -0.7 2.1-4.6 2.5-3.4 5.7 1.1 3.1 6.1 3.1 8.7 2.9 4.4-0.2 8.8-0.1 13.3-0.4 4.1-0.2 8.3-0.1 10.3-3.9 2.2-4.1 2.7-10.6 3.1-15.1C170.9 133.8 165.7 117 161.6 101.8zM106.4 80.5c-11.9-3.3-5.9-22.8 5.1-19.2 3.1 1 4.8 4.2 5.5 7.2C118.7 75.8 114.6 82.7 106.4 80.5zM135 81.8c-11.9-3.3-5.9-22.8 5.1-19.3 3.1 1 4.8 4.2 5.5 7.2C147.3 77.1 143.1 84 135 81.8z"/></g></svg>